<?xml version="1.0" encoding="UTF-8" standalone="no"?>
<svg
   xmlns:dc="http://purl.org/dc/elements/1.1/"
   xmlns:cc="http://creativecommons.org/ns#"
   xmlns:rdf="http://www.w3.org/1999/02/22-rdf-syntax-ns#"
   xmlns:svg="http://www.w3.org/2000/svg"
   xmlns="http://www.w3.org/2000/svg"
   xmlns:sodipodi="http://sodipodi.sourceforge.net/DTD/sodipodi-0.dtd"
   xmlns:inkscape="http://www.inkscape.org/namespaces/inkscape"
   version="1.1"
   id="Livello_1"
   x="0px"
   y="0px"
   viewBox="0 0 1080 1920"
   style="enable-background:new 0 0 1080 1920;"
   xml:space="preserve"
   sodipodi:docname="bg.svg"
   inkscape:version="1.0.1 (3bc2e813f5, 2020-09-07)"><metadata
   id="metadata11"><rdf:RDF><cc:Work
       rdf:about=""><dc:format>image/svg+xml</dc:format><dc:type
         rdf:resource="http://purl.org/dc/dcmitype/StillImage" /></cc:Work></rdf:RDF></metadata><defs
   id="defs9"><pattern
     id="EMFhbasepattern"
     patternUnits="userSpaceOnUse"
     width="6"
     height="6"
     x="0"
     y="0" /><filter
     inkscape:collect="always"
     style="color-interpolation-filters:sRGB"
     id="filter983"
     x="-0.032202522"
     width="1.064405"
     y="-0.03299732"
     height="1.0659946"><feGaussianBlur
       inkscape:collect="always"
       stdDeviation="14.490867"
       id="feGaussianBlur985" /></filter><filter
     inkscape:collect="always"
     style="color-interpolation-filters:sRGB"
     id="filter1261"
     x="-0.15516042"
     width="1.3103208"
     y="-0.067938552"
     height="1.1358771"><feGaussianBlur
       inkscape:collect="always"
       stdDeviation="6.0988269"
       id="feGaussianBlur1263" /></filter><filter
     inkscape:collect="always"
     style="color-interpolation-filters:sRGB"
     id="filter1599"
     x="-0.21570496"
     width="1.4314099"
     y="-0.11333389"
     height="1.2266678"><feGaussianBlur
       inkscape:collect="always"
       stdDeviation="6.5679728"
       id="feGaussianBlur1601" /></filter><filter
     inkscape:collect="always"
     style="color-interpolation-filters:sRGB"
     id="filter1845"
     x="-0.18597641"
     width="1.3719528"
     y="-0.052169329"
     height="1.1043387"><feGaussianBlur
       inkscape:collect="always"
       stdDeviation="5.7679707"
       id="feGaussianBlur1847" /></filter><filter
     inkscape:collect="always"
     style="color-interpolation-filters:sRGB"
     id="filter2015"
     x="-0.21724547"
     width="1.4344909"
     y="-0.048068915"
     height="1.0961378"><feGaussianBlur
       inkscape:collect="always"
       stdDeviation="5.8350638"
       id="feGaussianBlur2017" /></filter></defs><sodipodi:namedview
   pagecolor="#ffffff"
   bordercolor="#666666"
   borderopacity="1"
   objecttolerance="10"
   gridtolerance="10"
   guidetolerance="10"
   inkscape:pageopacity="0"
   inkscape:pageshadow="2"
   inkscape:window-width="1920"
   inkscape:window-height="991"
   id="namedview7"
   showgrid="false"
   inkscape:zoom="0.60398704"
   inkscape:cx="241.52646"
   inkscape:cy="814.51069"
   inkscape:window-x="-9"
   inkscape:window-y="-9"
   inkscape:window-maximized="1"
   inkscape:current-layer="Livello_1" />
<style
   type="text/css"
   id="style2">
	.st0{fill:#470B07;}
	.st1{fill:#78260A;}
	.st2{fill:#D14E0D;}
	.st3{fill:#FFCD09;}
	.st4{fill:#9E1E02;}
</style>
<path
   class="st0"
   d="m 17.278293,-21.227302 v 48.15 572.286852 341.47 c 0,50.84995 41.22,92.05995 92.059997,92.05995 v 0 c 56.26,0 101.87,-45.61 101.87,-101.86995 v -134.04 c 0,-32.15 26.06,-58.21 58.21,-58.21 h 5.36 c 31.73,0 57.45,25.72 57.45,57.45 v 86.98 c 0,57.82 46.87,104.68995 104.69,104.68995 v 0 c 52.42,0 94.91,-42.48995 94.91,-94.90995 v -237.93 c 0,-30.75 24.93,-55.69 55.69,-55.69 h 3.37 c 26.95,0 48.79,21.85 48.79,48.79 v 41.74 c 0,51.1 41.43,92.53 92.53,92.53 h 21.14 c 50,0 90.53,-40.53 90.53,-90.53 v 0 c 0,-24.03 19.48,-43.51 43.51,-43.51 v 0 c 24.03,0 43.51,19.48 43.51,43.51 v 52.47 c 0,51.48 41.73,93.21 93.21001,93.21 v 0 c 40.4,0 73.15,-32.75 73.15,-73.15 v -165.06 -559.216602 -61.22025 z"
   id="path4-6"
   style="fill:#000000;fill-opacity:1;filter:url(#filter983);opacity:0.63474388"
   sodipodi:nodetypes="cccsssssssssssssssssssssssssssscccc" /><path
   class="st0"
   d="m 0,-30.439036 v 48.15 L 0,589.99781 v 341.47 c 0,50.85 41.22,92.05999 92.06,92.05999 v 0 c 56.26,0 101.87,-45.60999 101.87,-101.86999 v -134.04 c 0,-32.15 26.06,-58.21 58.21,-58.21 h 5.36 c 31.73,0 57.45,25.72 57.45,57.45 v 86.98 c 0,57.82 46.87,104.69 104.69,104.69 v 0 c 52.42,0 94.91,-42.49 94.91,-94.91 v -237.93 c 0,-30.75 24.93,-55.69 55.69,-55.69 h 3.37 c 26.95,0 48.79,21.85 48.79,48.79 v 41.74 c 0,51.1 41.43,92.53 92.53,92.53 h 21.14 c 50,0 90.53,-40.53 90.53,-90.53 v 0 c 0,-24.03 19.48,-43.51 43.51,-43.51 v 0 c 24.03,0 43.51,19.48 43.51,43.51 v 52.47 c 0,51.48 41.73,93.21 93.21,93.21 v 0 c 40.4,0 73.15,-32.75 73.15,-73.15 v -165.06 l 0,-559.216596 v -61.22025 z"
   id="path4"
   style="fill:#470b07;fill-opacity:1"
   sodipodi:nodetypes="cccsssssssssssssssssssssssssssscccc" />
<path
   style="fill:#470b07;fill-opacity:1;fill-rule:nonzero;stroke:none"
   d="m -271.80896,-105.99187 h -576 V -657.3252 h 576 z"
   id="path864" /><path
   style="fill:#78260a;fill-opacity:1;fill-rule:nonzero;stroke:none"
   d="m 2013.8577,-105.99187 h -576 V -657.3252 h 576 z"
   id="path866" /><path
   style="fill:#d14e0d;fill-opacity:1;fill-rule:nonzero;stroke:none"
   d="M 1456.191,-105.99187 H 880.19104 V -657.3252 H 1456.191 Z"
   id="path868" /><path
   style="fill:#ffcd09;fill-opacity:1;fill-rule:nonzero;stroke:none"
   d="m 880.19104,-105.99187 h -576 V -657.3252 h 576 z"
   id="path870" /><path
   style="fill:#9e1e02;fill-opacity:1;fill-rule:nonzero;stroke:none"
   d="m 304.19104,-105.99187 h -576 V -657.3252 h 576 z"
   id="path872" /><path
   style="fill:#ffffff;stroke:none;stroke-width:1px;stroke-linecap:butt;stroke-linejoin:miter;stroke-opacity:1;fill-opacity:1;opacity:0.19153675;filter:url(#filter1261)"
   d="m 403.90244,945.95122 c 0,0 114.14634,19.31707 91.31707,-161.56098 -22.82927,-180.87804 25.17073,156.29269 -91.31707,161.56098 z"
   id="path987" /><path
   style="fill:#ffffff;stroke:none;stroke-width:1px;stroke-linecap:butt;stroke-linejoin:miter;stroke-opacity:1;fill-opacity:1;opacity:0.1403118;filter:url(#filter1599)"
   d="m 738.42644,751.67176 c 0,0 77.81624,-4.967 72.84924,-109.27387 -4.96699,-104.30688 -14.90098,97.68421 -72.84924,109.27387 z"
   id="path1265" /><path
   style="fill:#ffffff;stroke:none;stroke-width:1px;stroke-linecap:butt;stroke-linejoin:miter;stroke-opacity:1;fill-opacity:1;opacity:0.11581292;filter:url(#filter1845)"
   d="m 100.99554,998.36579 c 0,0 92.71723,-3.31133 71.19358,-205.30242 -21.52364,-201.99109 8.27833,167.22213 -71.19358,205.30242 z"
   id="path1603" /><path
   style="fill:#ffffff;stroke:none;stroke-width:1px;stroke-linecap:butt;stroke-linejoin:miter;stroke-opacity:1;fill-opacity:1;opacity:0.11358575;filter:url(#filter2015)"
   d="m 1009.9554,809.62002 c 0,0 76.1606,8.27832 62.9153,-223.51473 -13.2453,-231.79305 4.967,203.64675 -62.9153,223.51473 z"
   id="path1849" /></svg>
