<?xml version="1.0" encoding="UTF-8" standalone="no"?>
<svg
   xmlns:dc="http://purl.org/dc/elements/1.1/"
   xmlns:cc="http://creativecommons.org/ns#"
   xmlns:rdf="http://www.w3.org/1999/02/22-rdf-syntax-ns#"
   xmlns:svg="http://www.w3.org/2000/svg"
   xmlns="http://www.w3.org/2000/svg"
   xmlns:sodipodi="http://sodipodi.sourceforge.net/DTD/sodipodi-0.dtd"
   xmlns:inkscape="http://www.inkscape.org/namespaces/inkscape"
   version="1.1"
   id="Livello_1"
   x="0px"
   y="0px"
   viewBox="0 0 1080 1920"
   style="enable-background:new 0 0 1080 1920;"
   xml:space="preserve"
   sodipodi:docname="bg2.svg"
   inkscape:version="1.0.1 (3bc2e813f5, 2020-09-07)"><metadata
   id="metadata11"><rdf:RDF><cc:Work
       rdf:about=""><dc:format>image/svg+xml</dc:format><dc:type
         rdf:resource="http://purl.org/dc/dcmitype/StillImage" /></cc:Work></rdf:RDF></metadata><defs
   id="defs9" /><sodipodi:namedview
   pagecolor="#ffffff"
   bordercolor="#666666"
   borderopacity="1"
   objecttolerance="10"
   gridtolerance="10"
   guidetolerance="10"
   inkscape:pageopacity="0"
   inkscape:pageshadow="2"
   inkscape:window-width="1920"
   inkscape:window-height="991"
   id="namedview7"
   showgrid="false"
   inkscape:zoom="0.42708333"
   inkscape:cx="540"
   inkscape:cy="647.80488"
   inkscape:window-x="-9"
   inkscape:window-y="-9"
   inkscape:window-maximized="1"
   inkscape:current-layer="Livello_1" />
<style
   type="text/css"
   id="style2">
	.st0{fill:#470B07;}
	.st1{fill:#78260A;}
	.st2{fill:#D14E0D;}
	.st3{fill:#FFCD09;}
	.st4{fill:#9E1E02;}
</style>
<path
   class="st0"
   d="M 0,-7.0243898 0,243.42854 v 107.05 97.64 c 0,61.14 49.56,110.7 110.7,110.7 v 0 c 60.35,0 109.28,-48.92 109.28,-109.28 v -2.55 c 0,-23.41 18.98,-42.38 42.38,-42.38 v 0 c 19.07,0 34.52,15.46 34.52,34.52 v 0 c 0,54.26 43.99,98.24 98.24,98.24 v 0 c 67.23,0 121.73,-54.5 121.73,-121.73 v -27.22 c 0,-20.95 16.99,-37.94 37.94,-37.94 v 0 c 22.36,0 40.49,18.13 40.49,40.49 v 15.93 c 0,56.83 46.07,102.89 102.89,102.89 v 0 c 64.66,0 117.08,-52.42 117.08,-117.08 v -8.99 c 0,-18.36 14.88,-33.24 33.24,-33.24 v 0 c 18.36,0 33.24,14.88 33.24,33.24 v 86.76 c 0,60.63 49.15,109.79 109.79,109.79 v 0 c 48.85,0 88.45,-39.6 88.45,-88.45 v -141.34 -85.61 l 0,-271.8929298 z"
   id="path4"
   sodipodi:nodetypes="cccsssssssssssssssssssssssssssscccc" />
</svg>
