<?xml version="1.0" encoding="UTF-8" standalone="no"?>
<svg
   xmlns:dc="http://purl.org/dc/elements/1.1/"
   xmlns:cc="http://creativecommons.org/ns#"
   xmlns:rdf="http://www.w3.org/1999/02/22-rdf-syntax-ns#"
   xmlns:svg="http://www.w3.org/2000/svg"
   xmlns="http://www.w3.org/2000/svg"
   xmlns:sodipodi="http://sodipodi.sourceforge.net/DTD/sodipodi-0.dtd"
   xmlns:inkscape="http://www.inkscape.org/namespaces/inkscape"
   width="210mm"
   height="297mm"
   viewBox="0 0 210 297"
   version="1.1"
   id="svg8"
   inkscape:version="1.0.1 (3bc2e813f5, 2020-09-07)"
   sodipodi:docname="nav.svg">
  <defs
     id="defs2">
    <pattern
       id="EMFhbasepattern"
       patternUnits="userSpaceOnUse"
       width="6"
       height="6"
       x="0"
       y="0" />
    <filter
       inkscape:collect="always"
       style="color-interpolation-filters:sRGB"
       id="filter911"
       x="-0.0077157565"
       width="1.0154315"
       y="-0.044442746"
       height="1.0888855">
      <feGaussianBlur
         inkscape:collect="always"
         stdDeviation="0.72092726"
         id="feGaussianBlur913" />
    </filter>
    <filter
       inkscape:collect="always"
       style="color-interpolation-filters:sRGB"
       id="filter1017"
       x="-0.039239783"
       width="1.0784796"
       y="-0.030592554"
       height="1.0611851">
      <feGaussianBlur
         inkscape:collect="always"
         stdDeviation="0.11329705"
         id="feGaussianBlur1019" />
    </filter>
    <filter
       inkscape:collect="always"
       style="color-interpolation-filters:sRGB"
       id="filter1017-3"
       x="-0.039239783"
       width="1.0784796"
       y="-0.030592553"
       height="1.0611851">
      <feGaussianBlur
         inkscape:collect="always"
         stdDeviation="0.11329705"
         id="feGaussianBlur1019-9" />
    </filter>
    <filter
       inkscape:collect="always"
       style="color-interpolation-filters:sRGB"
       id="filter1017-2"
       x="-0.039239783"
       width="1.0784796"
       y="-0.030592553"
       height="1.0611851">
      <feGaussianBlur
         inkscape:collect="always"
         stdDeviation="0.11329705"
         id="feGaussianBlur1019-8" />
    </filter>
    <filter
       inkscape:collect="always"
       style="color-interpolation-filters:sRGB"
       id="filter1017-4"
       x="-0.039239783"
       width="1.0784796"
       y="-0.030592553"
       height="1.0611851">
      <feGaussianBlur
         inkscape:collect="always"
         stdDeviation="0.11329705"
         id="feGaussianBlur1019-4" />
    </filter>
    <filter
       inkscape:collect="always"
       style="color-interpolation-filters:sRGB"
       id="filter1017-5"
       x="-0.039239783"
       width="1.0784796"
       y="-0.030592553"
       height="1.0611851">
      <feGaussianBlur
         inkscape:collect="always"
         stdDeviation="0.11329705"
         id="feGaussianBlur1019-6" />
    </filter>
    <filter
       inkscape:collect="always"
       style="color-interpolation-filters:sRGB"
       id="filter1017-8"
       x="-0.039239783"
       width="1.0784796"
       y="-0.030592553"
       height="1.0611851">
      <feGaussianBlur
         inkscape:collect="always"
         stdDeviation="0.11329705"
         id="feGaussianBlur1019-44" />
    </filter>
    <filter
       inkscape:collect="always"
       style="color-interpolation-filters:sRGB"
       id="filter1017-87"
       x="-0.039239783"
       width="1.0784796"
       y="-0.030592553"
       height="1.0611851">
      <feGaussianBlur
         inkscape:collect="always"
         stdDeviation="0.11329705"
         id="feGaussianBlur1019-0" />
    </filter>
    <filter
       inkscape:collect="always"
       style="color-interpolation-filters:sRGB"
       id="filter1017-20"
       x="-0.039239783"
       width="1.0784796"
       y="-0.030592553"
       height="1.0611851">
      <feGaussianBlur
         inkscape:collect="always"
         stdDeviation="0.11329705"
         id="feGaussianBlur1019-88" />
    </filter>
    <filter
       inkscape:collect="always"
       style="color-interpolation-filters:sRGB"
       id="filter1017-52"
       x="-0.039239783"
       width="1.0784796"
       y="-0.030592553"
       height="1.0611851">
      <feGaussianBlur
         inkscape:collect="always"
         stdDeviation="0.11329705"
         id="feGaussianBlur1019-3" />
    </filter>
    <filter
       inkscape:collect="always"
       style="color-interpolation-filters:sRGB"
       id="filter1017-83"
       x="-0.039239783"
       width="1.0784796"
       y="-0.030592553"
       height="1.0611851">
      <feGaussianBlur
         inkscape:collect="always"
         stdDeviation="0.11329705"
         id="feGaussianBlur1019-69" />
    </filter>
    <filter
       inkscape:collect="always"
       style="color-interpolation-filters:sRGB"
       id="filter1017-7"
       x="-0.039239783"
       width="1.0784796"
       y="-0.030592553"
       height="1.0611851">
      <feGaussianBlur
         inkscape:collect="always"
         stdDeviation="0.11329705"
         id="feGaussianBlur1019-7" />
    </filter>
  </defs>
  <sodipodi:namedview
     id="base"
     pagecolor="#ffffff"
     bordercolor="#666666"
     borderopacity="1.0"
     inkscape:pageopacity="0.0"
     inkscape:pageshadow="2"
     inkscape:zoom="0.98994949"
     inkscape:cx="402.45553"
     inkscape:cy="473.73024"
     inkscape:document-units="mm"
     inkscape:current-layer="layer1"
     inkscape:document-rotation="0"
     showgrid="false"
     inkscape:window-width="1920"
     inkscape:window-height="991"
     inkscape:window-x="-9"
     inkscape:window-y="-9"
     inkscape:window-maximized="1" />
  <metadata
     id="metadata5">
    <rdf:RDF>
      <cc:Work
         rdf:about="">
        <dc:format>image/svg+xml</dc:format>
        <dc:type
           rdf:resource="http://purl.org/dc/dcmitype/StillImage" />
        <dc:title />
      </cc:Work>
    </rdf:RDF>
  </metadata>
  <g
     inkscape:label="Livello 1"
     inkscape:groupmode="layer"
     id="layer1">
    <path
       style="opacity:0.51002227;mix-blend-mode:normal;fill:#000000;fill-opacity:1;fill-rule:nonzero;stroke:none;stroke-width:0.155726;filter:url(#filter911)"
       d="m -5.7157672,124.67587 c 0,9.23976 0,9.23976 0,9.23976 0,11.26419 0,11.26419 0,11.26419 0,7.7344 0,7.7344 0,7.7344 0,3.32216 2.69925,6.02142 6.07332003,6.02142 3.06261997,0 3.06261997,0 3.06261997,0 2.69925,0 4.87942,-2.18017 4.87942,-4.87943 0,0 0,0 0,0 0,-1.60917 1.29772,-2.95879 2.9588002,-2.95879 0.93435,0 0.93435,0 0.93435,0 1.60917,0 2.9588,1.34962 2.9588,2.95879 0,3.27025 0,3.27025 0,3.27025 0,3.47789 2.80307,6.28096 6.28096,6.28096 1.03817,0 1.03817,0 1.03817,0 3.68552,0 6.69623,-2.95879 6.69623,-6.64432 0,-8.82448 0,-8.82448 0,-8.82448 0,-1.66108 1.29772,-2.9588 2.9588,-2.9588 1.24581,0 1.24581,0 1.24581,0 1.66108,0 2.95879,1.29772 2.95879,2.9588 0,1.29772 0,1.29772 0,1.29772 0,3.73743 3.06262,6.74813 6.80005,6.74813 2.33589,0 2.33589,0 2.33589,0 2.69926,0 4.87942,-2.18016 4.87942,-4.87942 0,0 0,0 0,0 0,-1.60917 1.34963,-2.9588 2.9588,-2.9588 0.88245,0 0.88245,0 0.88245,0 1.60917,0 2.9588,1.34963 2.9588,2.9588 0,4.51606 0,4.51606 0,4.51606 0,4.30842 3.47788,7.78631 7.78631,7.78631 0,0 0,0 0,0 3.42598,0 6.17714,-2.75116 6.17714,-6.17714 0,-9.29166 0,-9.29166 0,-9.29166 0,-1.66108 1.34962,-2.95879 3.01071,-2.95879 1.66107,0 1.66107,0 1.66107,0 1.66108,0 2.95879,1.29771 2.95879,2.95879 0,4.20461 0,4.20461 0,4.20461 0,4.20461 3.42598,7.57867 7.63059,7.57867 0.51909,0 0.51909,0 0.51909,0 3.21834,0 5.86568,-2.59543 5.86568,-5.86568 0,0 0,0 0,0 0,-1.60917 1.34963,-2.9588 2.9588,-2.9588 2.9588,0 2.9588,0 2.9588,0 1.661077,0 3.010707,1.34962 3.010707,2.9588 0,3.06261 0,3.06261 0,3.06261 0,3.58171 2.90688,6.4886 6.48859,6.4886 1.81681,0 1.81681,0 1.81681,0 3.16643,0 5.65804,-2.54353 5.65804,-5.65805 0,-6.64432 0,-6.64432 0,-6.64432 0,-1.60917 1.34963,-2.9588 2.9588,-2.9588 2.12826,0 2.12826,0 2.12826,0 1.66108,0 3.01071,1.34963 3.01071,2.9588 0,0 0,0 0,0 0,3.52979 2.80307,6.38477 6.33287,6.38477 0.98626,0 0.98626,0 0.98626,0 3.68552,0 6.64432,-2.9588 6.64432,-6.64432 0,-2.90688 0,-2.90688 0,-2.90688 0,-1.66109 1.34963,-2.9588 2.95879,-2.9588 0,0 0,0 0,0 1.66109,0 3.01071,1.29771 3.01071,2.9588 0,0 0,0 0,0 0,3.37406 2.75117,6.12523 6.12523,6.12523 1.713,0 1.713,0 1.713,0 3.37405,0 6.12522,-2.75117 6.12522,-6.12523 0,0 0,0 0,0 0,-1.66109 1.34963,-2.9588 2.9588,-2.9588 1.09008,0 1.09008,0 1.09008,0 1.60917,0 2.9588,1.29771 2.9588,2.9588 0,8.04585 0,8.04585 0,8.04585 0,4.10079 3.32215,7.42295 7.42295,7.42295 0,0 0,0 0,0 3.63361,0 6.59242,-2.90689 6.59242,-6.54051 0,-5.76187 0,-5.76187 0,-5.76187 0,-1.60916 1.2977,-2.95879 2.95879,-2.95879 0,0 0,0 0,0 1.66108,0 2.95879,1.34963 2.95879,2.95879 0,0 0,0 0,0 0,2.69926 2.18017,4.87942 4.87942,4.87942 4.61988,0 4.61988,0 4.61988,0 2.49162,0 4.51606,-2.02444 4.51606,-4.51606 0,-3.52979 0,-3.52979 0,-3.52979 0,-1.66108 1.29772,-2.95879 2.95881,-2.95879 0,0 0,0 0,0 1.66108,0 2.95879,1.29771 2.95879,2.95879 0,0 0,0 0,0 0,4.46415 3.6336,8.04585 8.09776,8.04585 0,0 0,0 0,0 3.27025,0 5.9176,-2.64734 5.9176,-5.91759 0,-5.08705 0,-5.08705 0,-5.08705 0,-14.01536 0,-14.01536 0,-14.01536 0,-6.48859 0,-6.48859 0,-6.48859 0,0 0,0 0,0 z"
       id="path834-7" />
    <path
       id="rect833"
       style="fill:#96bb7c;fill-opacity:1;fill-rule:evenodd;stroke:none;stroke-width:6.07743;stroke-linecap:round;stroke-linejoin:round;paint-order:markers stroke fill;stop-color:#000000"
       d="m 98.63205,-230.14175 v 29.32741 c 0,0 10.30631,13.13137 15.80294,8.75417 1.83221,-1.45904 2.56572,-4.30849 5.4967,-4.37726 8.74514,-0.20523 7.62904,13.08093 16.352,12.63437 8.23112,-0.42139 7.07557,-12.77978 15.25341,-13.50944 5.95355,-0.53122 15.05628,10.00698 20.92305,10.84278 11.11478,1.58345 14.58606,-10.36723 25.79816,-9.09226 10.51003,1.19515 15.4643,12.33899 26.10917,11.81867 11.1427,-0.54466 12.92277,-14.20651 24.04775,-14.88239 8.72646,-0.53015 9.79372,11.2128 18.39554,10.13686 4.36357,-0.54581 6.76453,-7.47522 11.14891,-7.94859 8.40048,-0.907 12.28399,10.77656 20.612,9.63002 8.21901,-1.13153 12.36769,-14.00693 12.36769,-14.00693 v -29.32741 z"
       sodipodi:nodetypes="ccscsssssssssccc" />
    <path
       style="fill:#470b07;fill-opacity:1;fill-rule:nonzero;stroke:none;stroke-width:0.155726"
       d="m -7.122862,122.9866 c 0,9.23976 0,9.23976 0,9.23976 0,11.26419 0,11.26419 0,11.26419 0,7.7344 0,7.7344 0,7.7344 0,3.32216 2.6992541,6.02142 6.0733219,6.02142 3.0626151,0 3.0626151,0 3.0626151,0 2.6992541,0 4.8794212,-2.18017 4.8794212,-4.87943 0,0 0,0 0,0 0,-1.60917 1.2977182,-2.95879 2.9587976,-2.95879 0.9343572,0 0.9343572,0 0.9343572,0 1.60917,0 2.958798,1.34962 2.958798,2.95879 0,3.27025 0,3.27025 0,3.27025 0,3.47789 2.803072,6.28096 6.280957,6.28096 1.038174,0 1.038174,0 1.038174,0 3.685521,0 6.696227,-2.95879 6.696227,-6.64432 0,-8.82448 0,-8.82448 0,-8.82448 0,-1.66108 1.297718,-2.9588 2.958798,-2.9588 1.24581,0 1.24581,0 1.24581,0 1.66108,0 2.958797,1.29772 2.958797,2.9588 0,1.29772 0,1.29772 0,1.29772 0,3.73743 3.062616,6.74813 6.800045,6.74813 2.335893,0 2.335893,0 2.335893,0 2.699254,0 4.879421,-2.18016 4.879421,-4.87942 0,0 0,0 0,0 0,-1.60917 1.349627,-2.9588 2.958795,-2.9588 0.882452,0 0.882452,0 0.882452,0 1.609172,0 2.958795,1.34963 2.958795,2.9588 0,4.51606 0,4.51606 0,4.51606 0,4.30842 3.477887,7.78631 7.786315,7.78631 0,0 0,0 0,0 3.425974,0 6.177139,-2.75116 6.177139,-6.17714 0,-9.29166 0,-9.29166 0,-9.29166 0,-1.66108 1.349623,-2.95879 3.010708,-2.95879 1.661072,0 1.661072,0 1.661072,0 1.661078,0 2.958796,1.29771 2.958796,2.95879 0,4.20461 0,4.20461 0,4.20461 0,4.20461 3.425974,7.57867 7.630582,7.57867 0.51909,0 0.51909,0 0.51909,0 3.218338,0 5.865686,-2.59543 5.865686,-5.86568 0,0 0,0 0,0 0,-1.60917 1.34963,-2.9588 2.958796,-2.9588 2.958801,0 2.958801,0 2.958801,0 1.661079,0 3.010712,1.34962 3.010712,2.9588 0,3.06261 0,3.06261 0,3.06261 0,3.58171 2.90688,6.4886 6.48859,6.4886 1.81681,0 1.81681,0 1.81681,0 3.16643,0 5.65804,-2.54353 5.65804,-5.65805 0,-6.64432 0,-6.64432 0,-6.64432 0,-1.60917 1.34963,-2.9588 2.9588,-2.9588 2.12826,0 2.12826,0 2.12826,0 1.66108,0 3.01071,1.34963 3.01071,2.9588 0,0 0,0 0,0 0,3.52979 2.80307,6.38477 6.33287,6.38477 0.98626,0 0.98626,0 0.98626,0 3.68552,0 6.64432,-2.9588 6.64432,-6.64432 0,-2.90688 0,-2.90688 0,-2.90688 0,-1.66109 1.34963,-2.9588 2.95879,-2.9588 0,0 0,0 0,0 1.66109,0 3.01071,1.29771 3.01071,2.9588 0,0 0,0 0,0 0,3.37406 2.75117,6.12523 6.12523,6.12523 1.713,0 1.713,0 1.713,0 3.37405,0 6.12522,-2.75117 6.12522,-6.12523 0,0 0,0 0,0 0,-1.66109 1.34963,-2.9588 2.9588,-2.9588 1.09008,0 1.09008,0 1.09008,0 1.60917,0 2.9588,1.29771 2.9588,2.9588 0,8.04585 0,8.04585 0,8.04585 0,4.10079 3.32215,7.42295 7.42295,7.42295 0,0 0,0 0,0 3.63361,0 6.59241,-2.90689 6.59241,-6.54051 0,-5.76187 0,-5.76187 0,-5.76187 0,-1.60916 1.29771,-2.95879 2.9588,-2.95879 0,0 0,0 0,0 1.66108,0 2.95879,1.34963 2.95879,2.95879 0,0 0,0 0,0 0,2.69926 2.18017,4.87942 4.87942,4.87942 4.61988,0 4.61988,0 4.61988,0 2.49162,0 4.51606,-2.02444 4.51606,-4.51606 0,-3.52979 0,-3.52979 0,-3.52979 0,-1.66108 1.29772,-2.95879 2.9588,-2.95879 0,0 0,0 0,0 1.66109,0 2.9588,1.29771 2.9588,2.95879 0,0 0,0 0,0 0,4.46415 3.6336,8.04585 8.09776,8.04585 0,0 0,0 0,0 3.27025,0 5.9176,-2.64734 5.9176,-5.91759 0,-5.08705 0,-5.08705 0,-5.08705 0,-14.01536 0,-14.01536 0,-14.01536 0,-6.48859 0,-6.48859 0,-6.48859 0,0 0,0 0,0 z"
       id="path834" />
    <path
       style="opacity:0.11804;fill:#ffffff;fill-opacity:1;stroke:none;stroke-width:0.264583px;stroke-linecap:butt;stroke-linejoin:miter;stroke-opacity:1;filter:url(#filter1017)"
       d="m -0.75595238,156.15142 c 0,0 6.89806538,1.13393 6.89806538,-6.52009 0,-7.65402 0.8976934,6.14211 -6.89806538,6.52009 z"
       id="path915" />
    <path
       style="opacity:0.11804;fill:#ffffff;fill-opacity:1;stroke:none;stroke-width:0.264583px;stroke-linecap:butt;stroke-linejoin:miter;stroke-opacity:1;filter:url(#filter1017-3)"
       d="m 19.591787,160.53627 c 0,0 6.898065,1.13393 6.898065,-6.52009 0,-7.65402 0.897693,6.14211 -6.898065,6.52009 z"
       id="path915-5" />
    <path
       style="opacity:0.11804;fill:#ffffff;fill-opacity:1;stroke:none;stroke-width:0.264583px;stroke-linecap:butt;stroke-linejoin:miter;stroke-opacity:1;filter:url(#filter1017-2)"
       d="m 41.325418,153.16574 c 0,0 6.898065,1.13393 6.898065,-6.52009 0,-7.65402 0.897694,6.14211 -6.898065,6.52009 z"
       id="path915-9"
       transform="matrix(1,0,0,0.85605956,0,22.433247)" />
    <path
       style="opacity:0.11804;fill:#ffffff;fill-opacity:1;stroke:none;stroke-width:0.264583px;stroke-linecap:butt;stroke-linejoin:miter;stroke-opacity:1;filter:url(#filter1017-4)"
       d="m 61.452649,160.63077 c 0,0 6.898066,1.13393 6.898066,-6.52009 0,-7.65402 0.897693,6.14211 -6.898066,6.52009 z"
       id="path915-4"
       transform="matrix(1.0398226,0,0,1.5923111,-2.4434399,-95.184997)" />
    <path
       style="opacity:0.11804;fill:#ffffff;fill-opacity:1;stroke:none;stroke-width:0.264583px;stroke-linecap:butt;stroke-linejoin:miter;stroke-opacity:1;filter:url(#filter1017-5)"
       d="m 83.139034,157.41797 c 0,0 6.898065,1.13393 6.898065,-6.52009 0,-7.65402 0.897694,6.14211 -6.898065,6.52009 z"
       id="path915-90" />
    <path
       style="opacity:0.11804;fill:#ffffff;fill-opacity:1;stroke:none;stroke-width:0.264583px;stroke-linecap:butt;stroke-linejoin:miter;stroke-opacity:1;filter:url(#filter1017-8)"
       d="m 106.43182,161.19774 c 0,0 6.89806,1.13393 6.89806,-6.52009 0,-7.65402 0.8977,6.14211 -6.89806,6.52009 z"
       id="path915-49" />
    <path
       style="opacity:0.11804;fill:#ffffff;fill-opacity:1;stroke:none;stroke-width:0.264583px;stroke-linecap:butt;stroke-linejoin:miter;stroke-opacity:1;filter:url(#filter1017-87)"
       d="m 128.16545,154.67764 c 0,0 6.89807,1.13393 6.89807,-6.52009 0,-7.65402 0.89769,6.14211 -6.89807,6.52009 z"
       id="path915-0" />
    <path
       style="opacity:0.11804;fill:#ffffff;fill-opacity:1;stroke:none;stroke-width:0.264583px;stroke-linecap:butt;stroke-linejoin:miter;stroke-opacity:1;filter:url(#filter1017-20)"
       d="m 148.19818,151.70109 c 0,0 6.89807,1.13393 6.89807,-6.52009 0,-7.65402 0.89769,6.14211 -6.89807,6.52009 z"
       id="path915-52" />
    <path
       style="opacity:0.11804;fill:#ffffff;fill-opacity:1;stroke:none;stroke-width:0.264583px;stroke-linecap:butt;stroke-linejoin:miter;stroke-opacity:1;filter:url(#filter1017-52)"
       d="m 169.22311,160.77251 c 0,0 6.89807,1.13393 6.89807,-6.52009 0,-7.65402 0.89769,6.14211 -6.89807,6.52009 z"
       id="path915-7" />
    <path
       style="opacity:0.11804;fill:#ffffff;fill-opacity:1;stroke:none;stroke-width:0.264583px;stroke-linecap:butt;stroke-linejoin:miter;stroke-opacity:1;filter:url(#filter1017-83)"
       d="m 189.58658,153.59096 c 0,0 6.89806,1.13393 6.89806,-6.52009 0,-7.65402 0.89769,6.14211 -6.89806,6.52009 z"
       id="path915-6" />
    <path
       style="opacity:0.11804;fill:#ffffff;fill-opacity:1;stroke:none;stroke-width:0.264583px;stroke-linecap:butt;stroke-linejoin:miter;stroke-opacity:1;filter:url(#filter1017-7)"
       d="m 209.76106,153.59097 c 0,0 6.89806,1.13393 6.89806,-6.52009 0,-7.65402 0.8977,6.14211 -6.89806,6.52009 z"
       id="path915-03" />
  </g>
</svg>
